<?xml version="1.0" encoding="utf-8"?>
<!-- Generator: Adobe Illustrator 16.0.3, SVG Export Plug-In . SVG Version: 6.00 Build 0)  -->
<!DOCTYPE svg PUBLIC "-//W3C//DTD SVG 1.1//EN" "http://www.w3.org/Graphics/SVG/1.1/DTD/svg11.dtd">
<svg version="1.1" id="Layer_1" xmlns="http://www.w3.org/2000/svg" xmlns:xlink="http://www.w3.org/1999/xlink" x="0px" y="0px"
	 width="293.753px" height="99.69px" viewBox="0 0 293.753 99.69" enable-background="new 0 0 293.753 99.69" xml:space="preserve">
<g>
	<g>
		<path fill="#2E3192" d="M94.844,54.34c-0.619,2.693-1.796,4.762-3.532,6.208c-1.795,1.437-3.917,2.155-6.366,2.155
			c-2.21-0.054-4.056-0.613-5.537-1.679c-1.508-1.022-2.602-2.208-3.283-3.547c-0.206-0.443-0.396-0.857-0.561-1.261
			c-0.156-0.407-0.286-0.93-0.387-1.553c-0.196-1.171-0.292-3.416-0.292-6.745c0-3.373,0.096-5.631,0.293-6.779
			c0.205-1.141,0.517-2.073,0.946-2.773c0.681-1.345,1.775-2.537,3.283-3.589c1.481-1.06,3.33-1.608,5.543-1.631
			c2.719,0.023,4.939,0.853,6.649,2.484c1.71,1.646,2.793,3.683,3.243,6.116H90.32c-0.354-1.169-0.982-2.174-1.899-2.997
			c-0.953-0.784-2.115-1.196-3.482-1.221c-1.007,0.025-1.874,0.235-2.593,0.62c-0.738,0.402-1.33,0.896-1.782,1.496
			c-0.55,0.629-0.919,1.431-1.102,2.42c-0.205,1.042-0.308,2.991-0.308,5.854c0,2.866,0.103,4.808,0.308,5.82
			c0.183,1.01,0.552,1.831,1.102,2.458c0.452,0.596,1.046,1.087,1.782,1.458c0.722,0.441,1.589,0.664,2.593,0.664
			c2.402,0,4.196-1.327,5.384-3.979H94.844z"/>
		<path fill="#2E3192" d="M97.605,47.919c0-3.376,0.095-5.643,0.29-6.79c0.208-1.146,0.522-2.078,0.949-2.781
			c0.681-1.338,1.78-2.532,3.281-3.581c1.479-1.052,3.328-1.599,5.545-1.622c2.24,0.023,4.104,0.571,5.597,1.631
			c1.484,1.052,2.553,2.245,3.205,3.589c0.476,0.701,0.807,1.633,0.989,2.773c0.159,1.148,0.246,3.407,0.246,6.779
			c0,3.329-0.087,5.574-0.246,6.745c-0.186,1.171-0.514,2.107-0.989,2.814c-0.659,1.339-1.725,2.524-3.205,3.547
			c-1.497,1.065-3.362,1.625-5.597,1.679c-2.217-0.054-4.066-0.613-5.545-1.679c-1.507-1.022-2.6-2.208-3.281-3.547
			c-0.205-0.443-0.396-0.857-0.564-1.261c-0.154-0.407-0.282-0.93-0.384-1.553C97.7,53.493,97.605,51.249,97.605,47.919z
			 M101.87,47.919c0,2.866,0.108,4.808,0.311,5.82c0.183,1.01,0.547,1.831,1.104,2.458c0.448,0.596,1.039,1.087,1.78,1.458
			c0.724,0.441,1.586,0.664,2.593,0.664c1.017,0,1.904-0.223,2.648-0.664c0.711-0.371,1.28-0.862,1.705-1.458
			c0.553-0.627,0.933-1.448,1.143-2.458c0.189-1.012,0.289-2.954,0.289-5.82c0-2.863-0.1-4.812-0.289-5.854
			c-0.21-0.99-0.59-1.791-1.143-2.42c-0.425-0.599-0.994-1.094-1.705-1.496c-0.744-0.385-1.631-0.595-2.648-0.62
			c-1.007,0.025-1.869,0.235-2.593,0.62c-0.741,0.402-1.332,0.896-1.78,1.496c-0.558,0.629-0.921,1.431-1.104,2.42
			C101.978,43.107,101.87,45.056,101.87,47.919z"/>
		<path fill="#2E3192" d="M123.473,33.386h9.858c3.812,0.025,6.674,1.655,8.582,4.904c0.677,1.092,1.113,2.238,1.292,3.432
			c0.141,1.196,0.208,3.261,0.208,6.198c0,3.126-0.105,5.309-0.326,6.541c-0.104,0.627-0.258,1.185-0.464,1.682
			c-0.218,0.479-0.483,0.973-0.793,1.495c-0.821,1.366-1.967,2.496-3.435,3.388c-1.46,0.957-3.242,1.438-5.353,1.438h-9.569V33.386z
			 M127.743,58.319h5.1c2.399,0,4.146-0.849,5.223-2.539c0.477-0.633,0.783-1.422,0.911-2.383c0.118-0.941,0.176-2.714,0.176-5.316
			c0-2.53-0.058-4.343-0.176-5.434c-0.154-1.094-0.525-1.978-1.103-2.659c-1.186-1.693-2.864-2.512-5.031-2.458h-5.1V58.319z"/>
		<path fill="#2E3192" d="M149.205,33.386h17.996v4.144h-13.733v8.319h11.725v3.909h-11.725v8.562h13.733v4.145h-17.996V33.386z"/>
		<path fill="#2E3192" d="M177.462,43.071h11.993v2.768h-9.153v5.734h7.812v2.603h-7.812v8.287h-2.84V43.071z"/>
		<path fill="#2E3192" d="M191.443,52.768c0-2.259,0.07-3.767,0.199-4.535c0.137-0.758,0.346-1.375,0.629-1.847
			c0.456-0.891,1.178-1.688,2.188-2.382c0.983-0.708,2.222-1.069,3.695-1.087c1.49,0.018,2.736,0.38,3.735,1.09
			c0.984,0.697,1.7,1.499,2.133,2.392c0.317,0.473,0.538,1.086,0.654,1.845c0.117,0.77,0.17,2.272,0.17,4.524
			c0,2.216-0.054,3.712-0.17,4.499c-0.116,0.778-0.337,1.403-0.654,1.866c-0.434,0.901-1.149,1.687-2.133,2.375
			c-0.999,0.705-2.245,1.076-3.735,1.116c-1.474-0.04-2.712-0.411-3.695-1.116c-1.009-0.688-1.732-1.474-2.188-2.375
			c-0.136-0.288-0.265-0.568-0.373-0.836c-0.101-0.267-0.192-0.614-0.257-1.03C191.514,56.48,191.443,54.983,191.443,52.768z
			 M194.289,52.768c0,1.913,0.072,3.202,0.206,3.879c0.118,0.673,0.362,1.224,0.741,1.634c0.298,0.406,0.696,0.729,1.183,0.979
			c0.481,0.296,1.054,0.436,1.729,0.436c0.676,0,1.27-0.14,1.765-0.436c0.48-0.249,0.857-0.572,1.138-0.979
			c0.369-0.41,0.625-0.961,0.758-1.634c0.131-0.678,0.197-1.966,0.197-3.879c0-1.904-0.066-3.211-0.197-3.901
			c-0.133-0.66-0.389-1.198-0.758-1.616c-0.281-0.398-0.658-0.733-1.138-0.999c-0.495-0.253-1.088-0.395-1.765-0.413
			c-0.674,0.018-1.248,0.16-1.729,0.413c-0.487,0.265-0.885,0.601-1.183,0.999c-0.378,0.418-0.623,0.956-0.741,1.616
			C194.36,49.556,194.289,50.864,194.289,52.768z"/>
		<path fill="#2E3192" d="M208.693,43.071h7.333c1.565,0,2.845,0.43,3.832,1.282c1.191,0.965,1.814,2.342,1.865,4.131
			c-0.039,2.632-1.246,4.427-3.63,5.374l4.344,8.606h-3.367l-3.896-8.287h-3.642v8.287h-2.838V43.071z M211.531,51.574h4.31
			c1.074-0.018,1.874-0.337,2.41-0.96c0.522-0.573,0.787-1.289,0.787-2.137c-0.021-1.01-0.337-1.745-0.946-2.191
			c-0.479-0.407-1.176-0.61-2.087-0.61h-4.473V51.574z"/>
	</g>
	<g>
		<g>
			<g>
				<polygon fill="#27AAE1" points="1.193,51.937 17.85,62.704 17.85,54.225 7.755,47.703 				"/>
			</g>
			<polygon fill="#2B3990" points="0,51.197 17.85,39.659 17.85,31.182 0,42.718 			"/>
		</g>
		<g>
			<g>
				<polygon fill="#27AAE1" points="67.085,41.94 50.432,31.182 50.432,39.659 60.521,46.182 				"/>
			</g>
			<polygon fill="#2B3990" points="68.279,42.689 50.432,54.225 50.432,62.704 68.279,51.17 			"/>
		</g>
	</g>
	<g>
		<path fill="#27AAE1" d="M41.43,96.882h-5.167c-0.266,0-0.484-0.221-0.484-0.487c0-0.268,0.218-0.484,0.484-0.484h5.167
			c0.268,0,0.487,0.217,0.487,0.484C41.917,96.662,41.697,96.882,41.43,96.882z"/>
	</g>
	<g>
		<path fill="#27AAE1" d="M41.43,93.662h-3.835c-0.265,0-0.482-0.217-0.482-0.485s0.217-0.484,0.482-0.484h3.835
			c0.268,0,0.487,0.216,0.487,0.484S41.697,93.662,41.43,93.662z"/>
	</g>
	<g>
		<path fill="#27AAE1" d="M41.43,95.273h-2.582c-0.268,0-0.488-0.219-0.488-0.484c0-0.27,0.22-0.486,0.488-0.486h2.582
			c0.268,0,0.487,0.217,0.487,0.486C41.917,95.054,41.697,95.273,41.43,95.273z"/>
	</g>
	<path fill="#2B3990" d="M42.711,11.663L33.942,0L25.17,11.663L23.863,99.69H44.42L42.711,11.663z M27.375,11.475l5.877-7.813v8.661
		L27.375,11.475z M40.508,11.471l-5.879,0.851V3.659L40.508,11.471z M26.804,12.787l6.448,0.929v84.325h-7.714L26.804,12.787z
		 M34.628,13.716l6.457-0.933l1.651,85.257h-8.108V13.716z"/>
	<g>
		<path fill="#27AAE1" d="M93.908,76.616c0,0.704-0.092,1.403-0.264,2.105c-0.175,0.698-0.465,1.335-0.868,1.912
			c-0.407,0.581-0.931,1.095-1.574,1.542c-0.649,0.439-1.429,0.767-2.344,0.985v0.24c0.807,0.136,1.579,0.361,2.305,0.686
			c0.727,0.324,1.355,0.767,1.896,1.336c0.539,0.562,0.962,1.249,1.271,2.058c0.308,0.805,0.464,1.761,0.464,2.867
			c0,1.451-0.311,2.711-0.929,3.772c-0.622,1.066-1.449,1.933-2.485,2.604c-1.035,0.675-2.214,1.169-3.53,1.5
			c-1.317,0.321-2.683,0.48-4.079,0.48c-0.458,0-1.043,0-1.757,0c-0.71,0-1.484-0.021-2.3-0.062
			c-0.821-0.039-1.656-0.097-2.502-0.185c-0.851-0.075-1.625-0.196-2.326-0.36V70.242c0.514-0.081,1.1-0.164,1.758-0.246
			c0.658-0.079,1.366-0.144,2.118-0.197c0.756-0.059,1.53-0.097,2.32-0.124c0.795-0.024,1.583-0.039,2.364-0.039
			c1.32,0,2.605,0.097,3.858,0.299c1.251,0.207,2.368,0.565,3.35,1.076c0.984,0.513,1.769,1.221,2.363,2.134
			C93.611,74.06,93.908,75.215,93.908,76.616z M81.996,81.91c0.376,0,0.812-0.011,1.307-0.039c0.5-0.027,0.914-0.068,1.233-0.124
			c1.022-0.317,1.906-0.8,2.648-1.438c0.738-0.64,1.111-1.478,1.111-2.519c0-0.688-0.137-1.263-0.409-1.716
			c-0.267-0.45-0.621-0.812-1.07-1.076c-0.441-0.267-0.947-0.451-1.511-0.558c-0.564-0.111-1.159-0.163-1.777-0.163
			c-0.7,0-1.347,0.015-1.94,0.04c-0.589,0.024-1.044,0.067-1.37,0.12v7.473H81.996z M83.811,94.059c0.675,0,1.323-0.08,1.959-0.238
			c0.628-0.159,1.186-0.406,1.674-0.736c0.482-0.334,0.875-0.758,1.17-1.264c0.295-0.506,0.445-1.104,0.445-1.798
			c0-0.879-0.176-1.568-0.524-2.076c-0.35-0.508-0.806-0.896-1.372-1.177c-0.566-0.282-1.2-0.464-1.898-0.541
			c-0.7-0.081-1.398-0.126-2.099-0.126h-2.947v7.718c0.131,0.052,0.351,0.096,0.645,0.121c0.296,0.025,0.609,0.045,0.95,0.06
			c0.335,0.013,0.688,0.025,1.05,0.039C83.229,94.055,83.541,94.059,83.811,94.059z"/>
		<path fill="#27AAE1" d="M103.676,78.114V89.58c0,1.64,0.193,2.824,0.587,3.554c0.388,0.723,1.149,1.09,2.278,1.09
			c0.996,0,1.828-0.295,2.483-0.887c0.661-0.595,1.148-1.32,1.472-2.185V78.114h5.253V92.16c0,1.104,0.053,2.188,0.162,3.255
			c0.106,1.062,0.263,2.023,0.479,2.886h-3.951l-0.931-2.991h-0.161c-0.619,1.025-1.483,1.875-2.586,2.546
			c-1.101,0.677-2.41,1.011-3.915,1.011c-1.027,0-1.939-0.137-2.748-0.409c-0.807-0.262-1.476-0.71-2.018-1.327
			c-0.538-0.616-0.95-1.453-1.231-2.503c-0.284-1.052-0.424-2.368-0.424-3.959V78.114H103.676z"/>
		<path fill="#27AAE1" d="M136.5,96.566c-0.808,0.642-1.907,1.186-3.29,1.634c-1.387,0.441-2.856,0.666-4.421,0.666
			c-3.259,0-5.64-0.947-7.148-2.849c-1.502-1.897-2.258-4.5-2.258-7.809c0-3.558,0.845-6.222,2.542-7.995
			c1.7-1.773,4.079-2.664,7.148-2.664c1.025,0,2.018,0.135,2.989,0.403c0.965,0.27,1.828,0.71,2.578,1.334
			c0.757,0.619,1.359,1.452,1.82,2.497c0.459,1.055,0.685,2.358,0.685,3.919c0,0.566-0.03,1.17-0.095,1.815
			c-0.072,0.649-0.174,1.32-0.31,2.02h-12.105c0.078,1.695,0.518,2.979,1.305,3.839c0.798,0.863,2.085,1.288,3.86,1.288
			c1.103,0,2.094-0.163,2.968-0.506c0.872-0.335,1.536-0.676,1.997-1.025L136.5,96.566z M128.988,81.747
			c-1.37,0-2.387,0.413-3.05,1.23c-0.657,0.818-1.053,1.919-1.187,3.292h7.509c0.105-1.453-0.118-2.568-0.667-3.35
			C131.041,82.139,130.172,81.747,128.988,81.747z"/>
		<path fill="#27AAE1" d="M153.217,98.3V86.833c0-1.644-0.236-2.825-0.71-3.551c-0.475-0.727-1.275-1.09-2.403-1.09
			c-0.998,0-1.837,0.292-2.523,0.868c-0.691,0.579-1.176,1.296-1.471,2.159V98.3h-5.253V78.114h4.161l0.603,2.667h0.162
			c0.622-0.863,1.438-1.618,2.462-2.262c1.021-0.647,2.343-0.97,3.958-0.97c0.996,0,1.885,0.135,2.667,0.403
			c0.779,0.27,1.439,0.71,1.972,1.334c0.542,0.619,0.947,1.456,1.217,2.52c0.271,1.066,0.403,2.379,0.403,3.936V98.3H153.217z"/>
		<path fill="#27AAE1" d="M161.896,88.208c0-3.421,0.832-6.049,2.503-7.896c1.669-1.84,4.009-2.763,7.024-2.763
			c1.612,0,3.013,0.251,4.197,0.764c1.182,0.511,2.171,1.233,2.946,2.162c0.782,0.927,1.364,2.054,1.759,3.373
			c0.391,1.315,0.589,2.77,0.589,4.36c0,3.419-0.835,6.053-2.488,7.889c-1.656,1.849-3.991,2.769-7.003,2.769
			c-1.612,0-3.016-0.257-4.197-0.77c-1.188-0.512-2.179-1.229-2.969-2.158c-0.791-0.933-1.384-2.052-1.777-3.37
			C162.088,91.247,161.896,89.795,161.896,88.208z M167.302,88.208c0,0.889,0.082,1.709,0.246,2.459
			c0.16,0.754,0.405,1.413,0.731,1.979c0.317,0.562,0.741,1.005,1.264,1.312c0.529,0.313,1.155,0.462,1.88,0.462
			c1.374,0,2.394-0.492,3.066-1.493c0.678-0.994,1.013-2.565,1.013-4.719c0-1.857-0.31-3.358-0.929-4.506
			c-0.624-1.14-1.671-1.716-3.15-1.716c-1.294,0-2.299,0.484-3.026,1.456C167.666,84.411,167.302,85.999,167.302,88.208z"/>
		<path fill="#27AAE1" d="M192.903,92.728c0-0.536-0.226-0.966-0.685-1.293c-0.461-0.32-1.029-0.617-1.696-0.887
			c-0.672-0.27-1.414-0.542-2.225-0.824c-0.801-0.286-1.542-0.674-2.214-1.175c-0.678-0.497-1.243-1.131-1.696-1.897
			c-0.461-0.768-0.692-1.756-0.692-2.971c0-1.988,0.59-3.507,1.778-4.56c1.183-1.049,2.897-1.572,5.132-1.572
			c1.535,0,2.918,0.159,4.157,0.48c1.238,0.323,2.211,0.691,2.905,1.092l-1.172,3.798c-0.617-0.248-1.395-0.498-2.338-0.766
			c-0.945-0.271-1.899-0.407-2.867-0.407c-1.567,0-2.343,0.603-2.343,1.817c0,0.483,0.226,0.876,0.687,1.171
			c0.459,0.296,1.028,0.572,1.696,0.828c0.67,0.254,1.413,0.529,2.224,0.824c0.805,0.297,1.547,0.685,2.215,1.148
			c0.672,0.478,1.241,1.085,1.698,1.843c0.458,0.75,0.685,1.722,0.685,2.905c0,2.045-0.654,3.654-1.956,4.826
			c-1.306,1.171-3.267,1.756-5.875,1.756c-1.429,0-2.763-0.183-4.018-0.547c-1.25-0.358-2.268-0.785-3.05-1.27l1.456-3.916
			c0.619,0.35,1.444,0.69,2.462,1.025c1.024,0.343,2.076,0.506,3.15,0.506c0.776,0,1.406-0.146,1.88-0.441
			C192.669,93.928,192.903,93.431,192.903,92.728z"/>
		<path fill="#27AAE1" d="M224.234,92.042h-8.681l-2.145,6.259h-5.527l10.173-28.463h4.075L232.304,98.3h-5.811L224.234,92.042z
			 M216.962,87.602h6.053l-2.092-6.297l-0.85-4.446h-0.203l-0.854,4.486L216.962,87.602z"/>
		<path fill="#27AAE1" d="M234.327,72.423c0-0.785,0.289-1.445,0.871-2.003c0.578-0.547,1.377-0.826,2.399-0.826
			c1.02,0,1.853,0.279,2.481,0.826c0.636,0.558,0.95,1.218,0.95,2.003c0,0.774-0.314,1.433-0.95,1.954
			c-0.629,0.523-1.461,0.785-2.481,0.785c-1.022,0-1.821-0.262-2.399-0.785C234.615,73.856,234.327,73.198,234.327,72.423z
			 M235.092,78.114h5.249V98.3h-5.249V78.114z"/>
		<path fill="#27AAE1" d="M256.609,83.041c-0.832-0.295-1.583-0.448-2.257-0.448c-0.946,0-1.731,0.251-2.364,0.752
			c-0.635,0.493-1.055,1.136-1.268,1.913V98.3h-5.246V78.114h4.075l0.603,2.667h0.162c0.453-1.001,1.075-1.764,1.857-2.303
			c0.784-0.542,1.695-0.809,2.747-0.809c0.701,0,1.493,0.146,2.379,0.444L256.609,83.041z"/>
		<path fill="#27AAE1" d="M275.786,96.566c-0.803,0.642-1.901,1.186-3.287,1.634c-1.388,0.441-2.86,0.666-4.419,0.666
			c-3.26,0-5.642-0.947-7.148-2.849c-1.509-1.897-2.257-4.5-2.257-7.809c0-3.558,0.845-6.222,2.544-7.995
			c1.692-1.773,4.071-2.664,7.141-2.664c1.023,0,2.019,0.135,2.987,0.403c0.968,0.27,1.833,0.71,2.585,1.334
			c0.755,0.619,1.357,1.452,1.811,2.497c0.466,1.055,0.694,2.358,0.694,3.919c0,0.566-0.036,1.17-0.104,1.815
			c-0.066,0.649-0.168,1.32-0.304,2.02H263.92c0.079,1.695,0.52,2.979,1.307,3.839c0.796,0.863,2.083,1.288,3.862,1.288
			c1.104,0,2.086-0.163,2.961-0.506c0.875-0.335,1.547-0.676,1.999-1.025L275.786,96.566z M268.277,81.747
			c-1.375,0-2.386,0.413-3.05,1.23c-0.658,0.818-1.054,1.919-1.185,3.292h7.505c0.106-1.453-0.118-2.568-0.665-3.35
			C270.33,82.139,269.462,81.747,268.277,81.747z"/>
		<path fill="#27AAE1" d="M288.505,92.728c0-0.536-0.23-0.966-0.69-1.293c-0.456-0.32-1.015-0.617-1.693-0.887
			c-0.674-0.27-1.412-0.542-2.219-0.824c-0.805-0.286-1.551-0.674-2.218-1.175c-0.678-0.497-1.243-1.131-1.7-1.897
			c-0.461-0.768-0.688-1.756-0.688-2.971c0-1.988,0.593-3.507,1.784-4.56c1.178-1.049,2.889-1.572,5.126-1.572
			c1.533,0,2.919,0.159,4.154,0.48c1.237,0.323,2.21,0.691,2.907,1.092l-1.171,3.798c-0.618-0.248-1.398-0.498-2.338-0.766
			c-0.941-0.271-1.904-0.407-2.869-0.407c-1.558,0-2.338,0.603-2.338,1.817c0,0.483,0.226,0.876,0.682,1.171
			c0.46,0.296,1.025,0.572,1.696,0.828c0.676,0.254,1.414,0.529,2.225,0.824c0.803,0.297,1.543,0.685,2.214,1.148
			c0.674,0.478,1.242,1.085,1.7,1.843c0.453,0.75,0.685,1.722,0.685,2.905c0,2.045-0.649,3.654-1.96,4.826
			c-1.307,1.171-3.262,1.756-5.874,1.756c-1.427,0-2.761-0.183-4.016-0.547c-1.251-0.358-2.267-0.785-3.048-1.27l1.451-3.916
			c0.622,0.35,1.443,0.69,2.467,1.025c1.019,0.343,2.071,0.506,3.146,0.506c0.778,0,1.408-0.146,1.881-0.441
			C288.269,93.928,288.505,93.431,288.505,92.728z"/>
	</g>
</g>
</svg>
