<?xml version="1.0" encoding="utf-8"?>
<!-- Generator: Adobe Illustrator 16.0.3, SVG Export Plug-In . SVG Version: 6.00 Build 0)  -->
<!DOCTYPE svg PUBLIC "-//W3C//DTD SVG 1.1//EN" "http://www.w3.org/Graphics/SVG/1.1/DTD/svg11.dtd">
<svg version="1.1" xmlns="http://www.w3.org/2000/svg" xmlns:xlink="http://www.w3.org/1999/xlink" x="0px" y="0px"
	 width="293.753px" height="293.753px" viewBox="0 0 293.753 293.753" enable-background="new 0 0 293.753 293.753"
	 xml:space="preserve">
<g id="Layer_2">
	<circle fill="#FFFFFF" cx="146.876" cy="146.876" r="142.665"/>
</g>
<g id="Layer_1">
	<g>
		<g>
			<path fill="#2E3191" d="M59.018,75.436c1.289,1.438,1.996,2.946,2.121,4.522c0.095,1.598-0.35,3.098-1.336,4.495
				c-0.923,1.242-1.986,2.07-3.189,2.487c-1.191,0.448-2.308,0.595-3.35,0.444c-0.335-0.059-0.647-0.122-0.942-0.188
				c-0.298-0.077-0.646-0.213-1.044-0.405c-0.746-0.364-2.065-1.214-3.962-2.553c-1.929-1.361-3.181-2.327-3.754-2.897
				c-0.571-0.577-0.969-1.129-1.201-1.659c-0.492-0.93-0.734-2.037-0.726-3.32c-0.01-1.275,0.425-2.55,1.302-3.823
				c1.11-1.54,2.477-2.471,4.1-2.79c1.627-0.313,3.229-0.111,4.795,0.611l-1.824,2.584c-0.808-0.274-1.635-0.317-2.476-0.126
				c-0.831,0.228-1.532,0.728-2.098,1.497c-0.39,0.584-0.622,1.162-0.691,1.729c-0.068,0.581-0.022,1.121,0.138,1.619
				c0.135,0.57,0.445,1.104,0.936,1.604c0.511,0.536,1.584,1.382,3.217,2.537c1.636,1.153,2.783,1.877,3.442,2.166
				c0.651,0.306,1.269,0.427,1.849,0.362c0.523-0.014,1.043-0.159,1.551-0.428c0.544-0.233,1.018-0.64,1.423-1.214
				c0.966-1.37,0.933-2.928-0.104-4.676L59.018,75.436z"/>
			<path fill="#2E3191" d="M61.216,66.263c-1.595-1.746-2.609-2.96-3.049-3.645c-0.435-0.688-0.707-1.314-0.82-1.879
				c-0.279-1.009-0.275-2.141,0.009-3.391c0.266-1.242,0.963-2.394,2.092-3.449c1.17-1.043,2.391-1.641,3.661-1.793
				c1.26-0.156,2.375-0.042,3.347,0.342c0.577,0.14,1.182,0.461,1.812,0.968c0.625,0.513,1.733,1.639,3.321,3.381
				c1.565,1.714,2.582,2.914,3.047,3.596c0.457,0.69,0.729,1.329,0.816,1.916c0.293,1.003,0.299,2.115,0.018,3.341
				c-0.271,1.252-0.972,2.419-2.104,3.502c-1.168,1.013-2.383,1.597-3.648,1.745c-1.259,0.181-2.382,0.086-3.365-0.287
				c-0.313-0.129-0.606-0.258-0.881-0.385c-0.272-0.138-0.584-0.344-0.933-0.621C63.89,69.093,62.783,67.977,61.216,66.263z
				 M63.418,64.253c1.35,1.479,2.314,2.431,2.899,2.858c0.569,0.438,1.146,0.687,1.726,0.748c0.516,0.099,1.049,0.068,1.605-0.084
				c0.58-0.113,1.129-0.407,1.65-0.88c0.525-0.48,0.877-1.009,1.056-1.588c0.19-0.527,0.255-1.045,0.19-1.556
				c-0.005-0.583-0.194-1.187-0.567-1.807c-0.378-0.612-1.238-1.659-2.588-3.136c-1.348-1.479-2.318-2.44-2.907-2.886
				c-0.57-0.412-1.146-0.649-1.728-0.708c-0.504-0.109-1.032-0.102-1.587,0.025c-0.567,0.154-1.12,0.465-1.659,0.931
				c-0.507,0.486-0.856,1-1.047,1.54c-0.191,0.551-0.262,1.092-0.213,1.612c0.01,0.584,0.199,1.174,0.57,1.768
				C61.201,61.72,62.067,62.776,63.418,64.253z"/>
			<path fill="#2E3191" d="M75.296,41.567l5.961-3.446c2.314-1.319,4.617-1.33,6.904-0.036c0.795,0.423,1.454,0.965,1.982,1.623
				c0.505,0.674,1.271,1.901,2.298,3.677c1.093,1.89,1.789,3.247,2.091,4.072c0.153,0.414,0.258,0.805,0.305,1.176
				c0.035,0.366,0.051,0.758,0.045,1.182c-0.02,1.115-0.317,2.202-0.894,3.252c-0.546,1.088-1.458,2.002-2.735,2.743l-5.784,3.344
				L75.296,41.567z M86.597,55.156l3.089-1.788c1.449-0.839,2.207-1.959,2.271-3.362c0.069-0.546-0.025-1.131-0.284-1.757
				c-0.259-0.611-0.844-1.703-1.753-3.275c-0.887-1.531-1.555-2.607-2.007-3.228c-0.475-0.606-1.01-1.013-1.597-1.221
				c-1.309-0.61-2.609-0.519-3.902,0.272l-3.087,1.788L86.597,55.156z"/>
			<path fill="#2E3191" d="M99.151,29.41l11.917-3.999l0.922,2.747l-9.093,3.049l1.849,5.512l7.762-2.603l0.866,2.587l-7.762,2.604
				l1.902,5.671l9.094-3.05l0.919,2.745l-11.917,3.997L99.151,29.41z"/>
			<path fill="#2E3191" d="M179.029,24.506l12.061,3.546l-0.819,2.779l-9.199-2.706l-1.696,5.763l7.854,2.311l-0.769,2.618
				l-7.854-2.312l-2.452,8.33l-2.857-0.841L179.029,24.506z"/>
			<path fill="#2E3191" d="M196.446,41.071c1.095-2.096,1.885-3.47,2.375-4.117c0.498-0.642,0.991-1.115,1.484-1.415
				c0.855-0.609,1.916-0.993,3.188-1.157c1.26-0.175,2.581,0.083,3.96,0.782c1.378,0.742,2.36,1.682,2.941,2.822
				c0.577,1.129,0.851,2.218,0.824,3.262c0.068,0.589-0.028,1.267-0.285,2.035c-0.268,0.761-0.944,2.189-2.034,4.281
				c-1.074,2.06-1.853,3.424-2.333,4.093c-0.489,0.667-0.997,1.142-1.519,1.425c-0.841,0.62-1.885,1.007-3.132,1.164
				c-1.27,0.178-2.607-0.081-4.011-0.773c-1.354-0.746-2.319-1.689-2.893-2.827c-0.603-1.119-0.898-2.206-0.886-3.258
				c0.013-0.338,0.034-0.659,0.059-0.96c0.038-0.305,0.126-0.667,0.262-1.086C194.706,44.552,195.373,43.13,196.446,41.071z
				 M199.09,42.45c-0.927,1.775-1.489,3.008-1.688,3.702c-0.213,0.687-0.252,1.312-0.109,1.879c0.084,0.518,0.296,1.009,0.631,1.479
				c0.305,0.505,0.769,0.921,1.393,1.246c0.632,0.329,1.25,0.479,1.855,0.446c0.56,0,1.069-0.12,1.527-0.351
				c0.546-0.21,1.047-0.594,1.499-1.155c0.447-0.565,1.134-1.734,2.061-3.509c0.926-1.775,1.495-3.016,1.712-3.722
				c0.189-0.678,0.214-1.3,0.074-1.867c-0.07-0.509-0.262-1.002-0.57-1.48c-0.341-0.481-0.82-0.893-1.443-1.238
				c-0.633-0.31-1.233-0.462-1.807-0.455c-0.586,0.009-1.113,0.127-1.585,0.355c-0.548,0.206-1.036,0.588-1.468,1.14
				C200.709,39.499,200.016,40.675,199.09,42.45z"/>
			<path fill="#2E3191" d="M224.443,45.754l5.923,4.903c1.264,1.045,2.009,2.241,2.237,3.59c0.315,1.576-0.104,3.104-1.259,4.583
				c-1.786,2.102-3.96,2.74-6.518,1.913l-2.241,9.851l-2.726-2.257l2.4-9.288l-2.939-2.431l-5.537,6.688l-2.294-1.9L224.443,45.754z
				 M221.061,54.516l3.481,2.881c0.871,0.697,1.734,0.975,2.581,0.828c0.808-0.115,1.496-0.515,2.06-1.196
				c0.663-0.828,0.899-1.631,0.709-2.404c-0.122-0.645-0.551-1.271-1.289-1.882l-3.605-2.985L221.061,54.516z"/>
		</g>
		<g>
			<polygon fill="#00ADEE" points="67.86,133.231 109.272,159.99 109.272,138.913 84.169,122.685 			"/>
		</g>
		<polygon fill="#2E3191" points="64.889,131.377 109.272,102.695 109.272,81.62 64.889,110.306 		"/>
		<g>
			<polygon fill="#00ADEE" points="225.887,108.374 184.479,81.62 184.479,102.695 209.569,118.919 			"/>
		</g>
		<polygon fill="#2E3191" points="228.863,110.233 184.479,138.916 184.479,159.99 228.863,131.312 		"/>
		<g>
			<path fill="#00ADEE" d="M127.193,48.402c-46.79,9.196-82.196,50.52-82.196,99.965h2.765c0-47.88,34.128-87.938,79.335-97.132
				L127.193,48.402z"/>
			<path fill="#00ADEE" d="M166.2,48.332l0.062,2.828c45.401,9.038,79.729,49.188,79.729,97.208h2.764
				C248.755,98.796,213.166,57.386,166.2,48.332z"/>
		</g>
		<path fill="#2E3191" d="M168.189,43.238l-21.807-28.997l-21.808,28.997l-3.25,139.694h51.109L168.189,43.238z M130.056,42.769
			l14.615-19.427v21.541L130.056,42.769z M162.712,42.764l-14.618,2.119V23.338L162.712,42.764z M128.633,46.026l16.038,2.314
			v134.592h-19.484L128.633,46.026z M148.094,48.341l16.054-2.322l4.631,136.914h-20.685V48.341z"/>
		<g>
			<path fill="#00ADEE" d="M104.347,250.514l3.499,9.673h8.972l-15.709-43.978h-6.302l-15.718,43.978h8.529l3.322-9.673H104.347z
				 M96.292,233.982l1.316-6.942h0.313l1.306,6.883l3.249,9.731h-9.352L96.292,233.982z"/>
			<path fill="#FFFFFF" d="M101.108,216.209l15.709,43.978h-8.972l-3.499-9.673H90.94l-3.322,9.673h-8.529l15.718-43.978H101.108
				 M93.125,243.654h9.352l-3.249-9.731l-1.306-6.883h-0.313l-1.316,6.942L93.125,243.654 M101.108,212.921h-6.302
				c-1.388,0-2.627,0.873-3.098,2.182l-15.716,43.976c-0.362,1.008-0.209,2.126,0.406,3.002c0.617,0.874,1.619,1.395,2.689,1.395
				h8.529c1.406,0,2.656-0.893,3.111-2.222l2.559-7.45h8.75l2.718,7.5c0.472,1.305,1.706,2.172,3.09,2.172h8.972
				c1.07,0,2.073-0.521,2.688-1.395c0.616-0.873,0.771-1.994,0.409-3.002l-15.712-43.976
				C103.736,213.794,102.496,212.921,101.108,212.921L101.108,212.921z M97.66,240.365l0.124-0.376l0.127,0.376H97.66L97.66,240.365
				z"/>
			<g>
				<path fill="#00ADEE" d="M121.282,223.214c0.901,0.823,2.134,1.221,3.711,1.221c1.574,0,2.871-0.397,3.845-1.221
					c0.979-0.798,1.466-1.807,1.466-3.022c0-1.203-0.487-2.215-1.466-3.08c-0.974-0.86-2.271-1.28-3.845-1.28
					c-1.577,0-2.81,0.42-3.711,1.28c-0.892,0.865-1.338,1.877-1.338,3.08C119.944,221.407,120.391,222.416,121.282,223.214z"/>
				<rect x="121.133" y="228.985" fill="#00ADEE" width="8.11" height="31.201"/>
			</g>
			<path fill="#FFFFFF" d="M124.993,215.831c1.574,0,2.871,0.42,3.845,1.28c0.979,0.865,1.466,1.877,1.466,3.08
				c0,1.216-0.487,2.225-1.466,3.022c-0.974,0.823-2.271,1.221-3.845,1.221c-1.577,0-2.81-0.397-3.711-1.221
				c-0.892-0.798-1.338-1.807-1.338-3.022c0-1.203,0.446-2.215,1.338-3.08C122.184,216.251,123.416,215.831,124.993,215.831
				 M129.243,228.985v31.201h-8.11v-31.201H129.243 M124.993,212.541c-2.441,0-4.453,0.738-5.979,2.188
				c-0.009,0.01-0.016,0.017-0.025,0.026c-1.527,1.485-2.333,3.364-2.333,5.436c0,2.155,0.839,4.044,2.432,5.473
				c0.159,0.148,0.33,0.288,0.504,0.417c-1.04,0.555-1.744,1.649-1.744,2.904v31.201c0,1.815,1.47,3.288,3.285,3.288h8.11
				c1.813,0,3.286-1.473,3.286-3.288v-31.201c0-1.322-0.783-2.464-1.911-2.987c0.109-0.081,0.215-0.164,0.32-0.252
				c1.736-1.427,2.652-3.347,2.652-5.555c0-2.134-0.889-4.051-2.573-5.544C129.431,213.251,127.407,212.541,124.993,212.541
				L124.993,212.541z"/>
			<path fill="#00ADEE" d="M150.894,235.909c1.035,0,2.196,0.223,3.479,0.693l1.073-7.617c-1.374-0.451-2.595-0.685-3.68-0.685
				c-1.63,0-3.031,0.403-4.249,1.254c-1.203,0.817-2.172,2.021-2.866,3.547h-0.252l-0.932-4.116h-6.305v31.201h8.113v-20.162
				c0.334-1.19,0.98-2.185,1.964-2.953C148.215,236.295,149.432,235.909,150.894,235.909z"/>
			<path fill="#FFFFFF" d="M151.766,228.301c1.085,0,2.306,0.233,3.68,0.685l-1.073,7.617c-1.282-0.471-2.443-0.693-3.479-0.693
				c-1.462,0-2.679,0.386-3.654,1.162c-0.983,0.769-1.63,1.763-1.964,2.953v20.162h-8.113v-31.201h6.305l0.932,4.116h0.252
				c0.694-1.525,1.663-2.729,2.866-3.547C148.734,228.704,150.136,228.301,151.766,228.301 M151.766,225.011
				c-2.22,0-4.212,0.573-5.923,1.703c-0.604-0.633-1.454-1.015-2.376-1.015h-6.305c-1.816,0-3.286,1.472-3.286,3.286v31.201
				c0,1.815,1.47,3.288,3.286,3.288h8.113c1.816,0,3.288-1.473,3.288-3.288v-19.624c0.154-0.361,0.38-0.648,0.701-0.898
				c0.264-0.209,0.693-0.466,1.629-0.466c0.668,0,1.46,0.165,2.348,0.49c0.368,0.135,0.751,0.199,1.131,0.199
				c0.589,0,1.173-0.157,1.692-0.465c0.851-0.511,1.426-1.38,1.566-2.363l1.07-7.613c0.222-1.576-0.716-3.084-2.226-3.582
				C154.736,225.291,153.194,225.011,151.766,225.011L151.766,225.011z"/>
			<path fill="#00ADEE" d="M181.327,252.213c-0.701,0.529-1.737,1.04-3.102,1.58c-1.332,0.517-2.863,0.775-4.555,0.775
				c-2.772,0-4.758-0.657-5.969-1.996c-1.233-1.318-1.903-3.297-2.026-5.918h18.696c0.223-1.086,0.378-2.137,0.481-3.126
				c0.11-0.988,0.166-1.936,0.166-2.812c0-2.419-0.361-4.424-1.069-6.061c-0.707-1.599-1.644-2.886-2.813-3.848
				c-1.155-0.956-2.478-1.646-3.988-2.052c-1.501-0.441-3.044-0.649-4.613-0.649c-4.737,0-8.427,1.381-11.05,4.115
				c-2.601,2.744-3.926,6.881-3.926,12.375c0,5.103,1.164,9.128,3.503,12.062c2.328,2.925,5.995,4.392,11.038,4.392
				c2.397,0,4.7-0.354,6.814-1.014c2.152-0.707,3.863-1.535,5.085-2.53L181.327,252.213z M167.702,236.507
				c1.007-1.278,2.582-1.895,4.707-1.895c1.841,0,3.165,0.599,4.029,1.804c0.848,1.193,1.181,2.935,1.008,5.177h-11.581
				C166.066,239.462,166.668,237.776,167.702,236.507z"/>
			<path fill="#FFFFFF" d="M172.535,228.106c1.569,0,3.112,0.208,4.613,0.649c1.511,0.406,2.833,1.096,3.988,2.052
				c1.17,0.962,2.106,2.249,2.813,3.848c0.708,1.637,1.069,3.642,1.069,6.061c0,0.877-0.056,1.824-0.166,2.812
				c-0.104,0.989-0.259,2.04-0.481,3.126h-18.696c0.123,2.621,0.793,4.6,2.026,5.918c1.211,1.339,3.196,1.996,5.969,1.996
				c1.691,0,3.223-0.259,4.555-0.775c1.364-0.54,2.4-1.051,3.102-1.58l2.673,5.294c-1.222,0.995-2.933,1.823-5.085,2.53
				c-2.114,0.66-4.417,1.014-6.814,1.014c-5.043,0-8.71-1.467-11.038-4.392c-2.339-2.935-3.503-6.96-3.503-12.062
				c0-5.494,1.325-9.631,3.926-12.375C164.108,229.487,167.798,228.106,172.535,228.106 M165.865,241.593h11.581
				c0.173-2.242-0.16-3.983-1.008-5.177c-0.864-1.205-2.188-1.804-4.029-1.804c-2.125,0-3.7,0.616-4.707,1.895
				C166.668,237.776,166.066,239.462,165.865,241.593 M172.535,224.817c-5.642,0-10.159,1.727-13.422,5.13
				c-3.217,3.393-4.839,8.317-4.839,14.649c0,5.85,1.417,10.598,4.217,14.111c2.975,3.735,7.553,5.631,13.609,5.631
				c2.698,0,5.322-0.39,7.795-1.162c0.015-0.006,0.033-0.011,0.05-0.017c2.623-0.863,4.63-1.881,6.132-3.104
				c1.195-0.976,1.555-2.652,0.858-4.033l-2.674-5.291c-0.146-0.292-0.335-0.557-0.556-0.789h0.666c1.567,0,2.912-1.103,3.224-2.634
				c0.229-1.136,0.408-2.291,0.529-3.435c0.121-1.098,0.183-2.163,0.183-3.158c0-2.876-0.44-5.284-1.34-7.368
				c-0.927-2.094-2.183-3.796-3.741-5.078c-1.518-1.254-3.262-2.156-5.188-2.678C176.287,225.079,174.438,224.817,172.535,224.817
				L172.535,224.817z M170.539,238.305c0.392-0.269,1.019-0.404,1.87-0.404c0.981,0,1.227,0.256,1.34,0.404H170.539L170.539,238.305
				z M169.812,249.942h8.963c-0.383,0.207-0.939,0.469-1.754,0.792c-0.93,0.359-2.063,0.546-3.35,0.546
				c-1.744,0-2.995-0.324-3.525-0.912c-0.016-0.015-0.029-0.03-0.042-0.043C169.998,250.212,169.899,250.085,169.812,249.942
				L169.812,249.942z"/>
			<path fill="#00ADEE" d="M210.706,246.389c-0.71-1.168-1.582-2.095-2.612-2.837c-1.047-0.723-2.198-1.308-3.425-1.769
				c-1.25-0.47-2.396-0.882-3.447-1.277c-1.034-0.396-1.899-0.842-2.606-1.279c-0.725-0.471-1.069-1.068-1.069-1.826
				c0-1.865,1.21-2.788,3.628-2.788c1.488,0,2.965,0.204,4.428,0.61c1.445,0.421,2.653,0.81,3.613,1.193l1.817-5.873
				c-1.079-0.607-2.592-1.179-4.49-1.679c-1.932-0.486-4.065-0.758-6.436-0.758c-3.451,0-6.095,0.836-7.927,2.437
				c-1.833,1.639-2.739,3.989-2.739,7.047c0,1.872,0.366,3.403,1.057,4.595c0.7,1.179,1.583,2.153,2.625,2.936
				c1.03,0.769,2.183,1.368,3.44,1.812c1.255,0.441,2.38,0.849,3.417,1.277c1.036,0.405,1.914,0.879,2.602,1.379
				c0.726,0.488,1.076,1.163,1.076,1.981c0,1.086-0.357,1.854-1.093,2.323c-0.723,0.435-1.688,0.676-2.879,0.676
				c-1.668,0-3.302-0.259-4.881-0.775c-1.575-0.54-2.845-1.051-3.812-1.58l-2.237,6.026c1.192,0.754,2.77,1.424,4.7,1.968
				c1.951,0.567,4.008,0.844,6.229,0.844c4.02,0,7.054-0.902,9.046-2.713c2.03-1.804,3.037-4.293,3.037-7.447
				C211.769,249.055,211.428,247.562,210.706,246.389z"/>
			<path fill="#FFFFFF" d="M200.106,228.106c2.37,0,4.504,0.271,6.436,0.758c1.898,0.5,3.411,1.071,4.49,1.679l-1.817,5.873
				c-0.96-0.384-2.168-0.772-3.613-1.193c-1.463-0.406-2.939-0.61-4.428-0.61c-2.418,0-3.628,0.923-3.628,2.788
				c0,0.758,0.345,1.355,1.069,1.826c0.707,0.438,1.572,0.884,2.606,1.279c1.051,0.396,2.197,0.808,3.447,1.277
				c1.227,0.461,2.378,1.046,3.425,1.769c1.03,0.742,1.902,1.669,2.612,2.837c0.722,1.174,1.062,2.666,1.062,4.502
				c0,3.154-1.007,5.644-3.037,7.447c-1.992,1.811-5.026,2.713-9.046,2.713c-2.222,0-4.278-0.276-6.229-0.844
				c-1.931-0.544-3.508-1.214-4.7-1.968l2.237-6.026c0.967,0.529,2.236,1.04,3.812,1.58c1.579,0.517,3.213,0.775,4.881,0.775
				c1.191,0,2.156-0.241,2.879-0.676c0.735-0.469,1.093-1.237,1.093-2.323c0-0.818-0.351-1.493-1.076-1.981
				c-0.688-0.5-1.565-0.974-2.602-1.379c-1.037-0.429-2.162-0.836-3.417-1.277c-1.258-0.443-2.41-1.043-3.44-1.812
				c-1.042-0.782-1.925-1.757-2.625-2.936c-0.69-1.191-1.057-2.723-1.057-4.595c0-3.058,0.906-5.408,2.739-7.047
				C194.012,228.942,196.655,228.106,200.106,228.106 M200.106,224.817c-4.229,0-7.623,1.096-10.089,3.25
				c-0.009,0.008-0.018,0.015-0.024,0.021c-2.551,2.273-3.841,5.471-3.841,9.501c0,2.422,0.501,4.522,1.496,6.243
				c0.009,0.013,0.016,0.024,0.022,0.037c0.906,1.524,2.078,2.829,3.477,3.88c1.287,0.962,2.739,1.728,4.327,2.283
				c1.007,0.354,2.176,0.772,3.229,1.208c-0.972-0.077-1.93-0.266-2.856-0.568c-1.465-0.501-2.537-0.94-3.277-1.347
				c-0.489-0.265-1.031-0.401-1.576-0.401c-0.388,0-0.78,0.069-1.15,0.208c-0.894,0.334-1.599,1.039-1.933,1.936l-2.238,6.025
				c-0.54,1.456,0.01,3.093,1.323,3.924c1.476,0.936,3.349,1.728,5.566,2.355c2.229,0.648,4.567,0.966,7.124,0.966
				c4.857,0,8.64-1.196,11.245-3.554c2.738-2.441,4.127-5.771,4.127-9.895c0-2.487-0.505-4.522-1.549-6.223
				c-0.907-1.493-2.085-2.768-3.488-3.782c-0.022-0.016-0.041-0.027-0.062-0.042c-1.168-0.805-2.471-1.492-3.874-2.042
				c0.771,0.245,1.401,0.464,1.908,0.669c0.393,0.155,0.805,0.234,1.222,0.234c0.484,0,0.968-0.107,1.415-0.322
				c0.828-0.393,1.453-1.118,1.725-1.995l1.819-5.872c0.46-1.478-0.178-3.077-1.525-3.835c-1.339-0.757-3.112-1.43-5.266-1.997
				c-0.013-0.003-0.025-0.006-0.036-0.01C205.093,225.105,202.656,224.817,200.106,224.817L200.106,224.817z"/>
		</g>
		<g>
			<path fill="#2E3191" d="M146.876,293.753C65.89,293.753,0,227.863,0,146.877C0,65.888,65.89,0,146.876,0
				c80.987,0,146.877,65.888,146.877,146.877C293.753,227.863,227.863,293.753,146.876,293.753z M146.876,8.7
				C70.688,8.7,8.701,70.687,8.701,146.877c0,76.187,61.986,138.174,138.175,138.174c76.189,0,138.176-61.987,138.176-138.174
				C285.052,70.687,223.065,8.7,146.876,8.7z"/>
		</g>
		<g>
			<path fill="#00ADEE" d="M79.511,201.711c0.965-1.65,1.443-3.593,1.443-5.835c0-1.694-0.242-3.172-0.721-4.427
				c-0.479-1.256-1.129-2.316-1.963-3.188c-0.834-0.88-1.812-1.568-2.935-2.06c-1.122-0.503-2.301-0.843-3.557-1.066v-0.357
				c1.412-0.346,2.62-0.846,3.622-1.533s1.8-1.473,2.434-2.372c0.626-0.912,1.071-1.894,1.335-2.972
				c0.269-1.089,0.415-2.155,0.415-3.241c0-2.163-0.468-3.949-1.374-5.373c-0.922-1.407-2.136-2.499-3.655-3.29
				c-1.514-0.783-3.244-1.343-5.181-1.656c-1.925-0.302-3.914-0.461-5.959-0.461c-1.207,0-2.418,0.015-3.652,0.062
				c-1.216,0.029-2.415,0.106-3.586,0.169c-1.164,0.083-2.256,0.188-3.274,0.333c-1.021,0.106-1.92,0.232-2.707,0.379v43.033
				c1.084,0.236,2.269,0.439,3.588,0.546c1.311,0.148,2.6,0.213,3.863,0.292c1.264,0.065,2.464,0.089,3.554,0.089
				c1.102,0,2.012,0,2.729,0c2.149,0,4.251-0.232,6.285-0.756c2.042-0.504,3.86-1.27,5.462-2.288
				C77.272,204.683,78.561,203.36,79.511,201.711z M58.43,171.3c0.507-0.092,1.211-0.154,2.112-0.187
				c0.92-0.061,1.928-0.08,3.011-0.08c0.946,0,1.869,0.093,2.739,0.269c0.871,0.172,1.656,0.432,2.336,0.857
				c0.695,0.402,1.24,0.944,1.656,1.671c0.411,0.693,0.622,1.583,0.622,2.646c0,1.602-0.566,2.89-1.722,3.872
				c-1.135,1.015-2.504,1.747-4.08,2.228c-0.491,0.093-1.139,0.161-1.902,0.187c-0.768,0.068-1.447,0.082-2.03,0.082H58.43V171.3z
				 M71.396,198.146c-0.451,0.778-1.049,1.439-1.795,1.956c-0.754,0.514-1.627,0.88-2.586,1.146
				c-0.998,0.231-1.991,0.373-3.032,0.373c-0.416,0-0.903-0.004-1.467-0.054c-0.562-0.014-1.103-0.029-1.619-0.045
				c-0.529-0.013-1.009-0.057-1.469-0.086c-0.462-0.062-0.793-0.105-0.998-0.188v-11.925h4.552c1.079,0,2.166,0.068,3.242,0.194
				c1.086,0.104,2.064,0.393,2.941,0.838c0.86,0.415,1.576,1.027,2.12,1.806c0.532,0.781,0.798,1.855,0.798,3.213
				C72.083,196.447,71.861,197.365,71.396,198.146z"/>
			<path fill="#FFFFFF" d="M63.416,163.879c2.045,0,4.034,0.159,5.959,0.461c1.937,0.313,3.667,0.873,5.181,1.656
				c1.52,0.791,2.733,1.883,3.655,3.29c0.906,1.424,1.374,3.21,1.374,5.373c0,1.086-0.146,2.152-0.415,3.241
				c-0.264,1.078-0.709,2.06-1.335,2.972c-0.634,0.899-1.432,1.685-2.434,2.372s-2.21,1.188-3.622,1.533v0.357
				c1.256,0.224,2.435,0.563,3.557,1.066c1.123,0.491,2.101,1.18,2.935,2.06c0.834,0.872,1.484,1.933,1.963,3.188
				c0.479,1.255,0.721,2.732,0.721,4.427c0,2.242-0.479,4.185-1.443,5.835c-0.95,1.649-2.238,2.972-3.834,4.027
				c-1.602,1.019-3.42,1.784-5.462,2.288c-2.034,0.523-4.136,0.756-6.285,0.756c-0.717,0-1.627,0-2.729,0
				c-1.09,0-2.29-0.023-3.554-0.089c-1.264-0.079-2.553-0.144-3.863-0.292c-1.319-0.106-2.504-0.31-3.588-0.546v-43.033
				c0.787-0.146,1.687-0.272,2.707-0.379c1.019-0.145,2.11-0.25,3.274-0.333c1.171-0.062,2.37-0.14,3.586-0.169
				C60.998,163.894,62.209,163.879,63.416,163.879 M58.43,182.845h2.742c0.583,0,1.263-0.014,2.03-0.082
				c0.764-0.025,1.411-0.094,1.902-0.187c1.576-0.48,2.945-1.213,4.08-2.228c1.155-0.982,1.722-2.271,1.722-3.872
				c0-1.063-0.211-1.953-0.622-2.646c-0.416-0.727-0.961-1.269-1.656-1.671c-0.68-0.426-1.465-0.686-2.336-0.857
				c-0.87-0.176-1.793-0.269-2.739-0.269c-1.083,0-2.091,0.02-3.011,0.08c-0.901,0.032-1.605,0.095-2.112,0.187V182.845
				 M63.982,201.62c1.041,0,2.034-0.142,3.032-0.373c0.959-0.266,1.832-0.632,2.586-1.146c0.746-0.517,1.344-1.178,1.795-1.956
				c0.466-0.78,0.688-1.698,0.688-2.772c0-1.357-0.266-2.432-0.798-3.213c-0.544-0.778-1.26-1.391-2.12-1.806
				c-0.877-0.445-1.855-0.733-2.941-0.838c-1.076-0.126-2.163-0.194-3.242-0.194H58.43v11.925c0.205,0.083,0.536,0.127,0.998,0.188
				c0.46,0.029,0.939,0.073,1.469,0.086c0.517,0.016,1.057,0.031,1.619,0.045C63.079,201.616,63.566,201.62,63.982,201.62
				 M63.416,160.589c-1.449,0-2.645,0.021-3.76,0.068c-0.988,0.023-1.95,0.077-2.882,0.127l-0.77,0.044
				c-0.02,0.001-0.039,0.001-0.059,0.003c-1.316,0.092-2.444,0.206-3.446,0.348c-1.073,0.115-2.049,0.253-2.902,0.409
				c-1.559,0.289-2.691,1.649-2.691,3.234v43.033c0,1.548,1.079,2.886,2.591,3.213c1.381,0.302,2.679,0.498,3.968,0.605
				c1.137,0.127,2.226,0.194,3.279,0.258l0.694,0.044c0.012,0.002,0.025,0.002,0.038,0.002c1.185,0.062,2.438,0.096,3.725,0.096
				h2.729c2.494,0,4.886-0.291,7.106-0.863c2.33-0.574,4.495-1.483,6.402-2.696c0.018-0.01,0.036-0.021,0.054-0.032
				c2.055-1.358,3.69-3.086,4.868-5.131c1.246-2.13,1.884-4.654,1.884-7.475c0-2.086-0.317-3.968-0.939-5.6
				c-0.63-1.659-1.526-3.1-2.655-4.287c-0.506-0.534-1.057-1.018-1.648-1.452c0.567-0.547,1.075-1.137,1.52-1.768
				c0.008-0.011,0.018-0.025,0.024-0.036c0.856-1.247,1.469-2.61,1.819-4.052c0.342-1.39,0.506-2.705,0.506-4.022
				c0-2.77-0.634-5.172-1.887-7.139c-0.007-0.013-0.015-0.023-0.022-0.036c-1.228-1.875-2.874-3.358-4.887-4.405
				c-1.842-0.954-3.916-1.618-6.173-1.986C67.761,160.758,65.583,160.589,63.416,160.589L63.416,160.589z M61.72,174.348
				c0.534-0.02,1.134-0.026,1.833-0.026c0.706,0,1.41,0.069,2.092,0.206c0.562,0.109,0.961,0.245,1.239,0.419
				c0.032,0.021,0.063,0.038,0.096,0.059c0.203,0.118,0.33,0.246,0.454,0.464c0.007,0.009,0.013,0.021,0.02,0.031
				c0.029,0.048,0.167,0.316,0.167,0.977c0,0.74-0.217,1.074-0.565,1.369c-0.02,0.017-0.04,0.035-0.06,0.052
				c-0.717,0.641-1.591,1.125-2.669,1.479c-0.24,0.037-0.642,0.08-1.231,0.1c-0.059,0.002-0.117,0.003-0.176,0.009
				c-0.391,0.036-0.779,0.056-1.199,0.066V174.348L61.72,174.348z M61.72,192.611h1.262c0.932,0,1.894,0.057,2.859,0.17
				c0.022,0.004,0.042,0.004,0.062,0.007c0.664,0.066,1.243,0.229,1.775,0.498c0.019,0.01,0.04,0.019,0.06,0.029
				c0.349,0.169,0.626,0.407,0.849,0.726l0,0c0,0,0.21,0.332,0.21,1.332c0,0.479-0.073,0.836-0.227,1.09
				c-0.233,0.404-0.503,0.702-0.838,0.933c-0.384,0.262-0.888,0.483-1.527,0.664c-0.825,0.187-1.531,0.274-2.222,0.274
				c-0.34,0-0.735-0.002-1.173-0.043c-0.07-0.006-0.143-0.01-0.212-0.012l-0.258-0.007c-0.212-0.005-0.418-0.011-0.62-0.017V192.611
				L61.72,192.611z"/>
			<path fill="#00ADEE" d="M114.326,208.17c-0.339-1.332-0.587-2.817-0.741-4.468c-0.164-1.651-0.25-3.32-0.25-5.018v-21.712h-8.116
				v20.144c-0.499,1.357-1.258,2.462-2.281,3.374c-1.018,0.915-2.303,1.363-3.832,1.363c-1.75,0-2.93-0.545-3.521-1.678
				c-0.611-1.111-0.915-2.951-0.915-5.49v-17.713h-8.111v19.391c0,2.462,0.223,4.504,0.661,6.126
				c0.44,1.614,1.078,2.898,1.906,3.858c0.836,0.958,1.87,1.651,3.106,2.054c1.256,0.432,2.667,0.647,4.249,0.647
				c2.334,0,4.349-0.535,6.057-1.569c1.702-1.041,3.034-2.339,3.998-3.928h0.239l1.442,4.618H114.326z"/>
			<path fill="#00ADEE" d="M142.704,200.176c-0.7,0.551-1.73,1.077-3.069,1.577c-1.359,0.54-2.891,0.792-4.594,0.792
				c-2.741,0-4.734-0.65-5.964-1.988c-1.221-1.339-1.895-3.312-2.025-5.937h18.716c0.206-1.086,0.362-2.103,0.481-3.128
				c0.097-0.988,0.142-1.915,0.142-2.791c0-2.421-0.345-4.445-1.056-6.05c-0.72-1.63-1.653-2.919-2.813-3.874
				c-1.162-0.941-2.49-1.631-3.985-2.058c-1.506-0.406-3.036-0.625-4.616-0.625c-4.744,0-8.425,1.38-11.042,4.125
				c-2.63,2.733-3.938,6.847-3.938,12.34c0,5.123,1.169,9.151,3.498,12.086c2.333,2.936,6.011,4.403,11.046,4.403
				c2.413,0,4.692-0.355,6.822-1.044c2.141-0.692,3.844-1.519,5.086-2.537L142.704,200.176z M129.077,184.501
				c1.021-1.272,2.594-1.925,4.715-1.925c1.818,0,3.17,0.632,4.02,1.823c0.855,1.21,1.198,2.935,1.026,5.178h-11.603
				C127.448,187.458,128.059,185.761,129.077,184.501z"/>
			<path fill="#FFFFFF" d="M133.92,176.095c1.58,0,3.11,0.219,4.616,0.625c1.495,0.427,2.823,1.116,3.985,2.058
				c1.16,0.955,2.094,2.244,2.813,3.874c0.711,1.604,1.056,3.629,1.056,6.05c0,0.876-0.045,1.803-0.142,2.791
				c-0.119,1.025-0.275,2.042-0.481,3.128h-18.716c0.131,2.624,0.805,4.598,2.025,5.937c1.229,1.338,3.223,1.988,5.964,1.988
				c1.703,0,3.234-0.252,4.594-0.792c1.339-0.5,2.369-1.026,3.069-1.577l2.688,5.292c-1.242,1.019-2.945,1.845-5.086,2.537
				c-2.13,0.688-4.409,1.044-6.822,1.044c-5.035,0-8.713-1.468-11.046-4.403c-2.329-2.935-3.498-6.963-3.498-12.086
				c0-5.493,1.309-9.606,3.938-12.34C125.495,177.475,129.176,176.095,133.92,176.095 M127.235,189.577h11.603
				c0.172-2.243-0.171-3.968-1.026-5.178c-0.85-1.191-2.201-1.823-4.02-1.823c-2.121,0-3.694,0.652-4.715,1.925
				C128.059,185.761,127.448,187.458,127.235,189.577 M133.92,172.807c-5.65,0-10.167,1.73-13.423,5.144
				c-3.212,3.338-4.848,8.258-4.848,14.609c0,5.858,1.418,10.611,4.213,14.131c2.975,3.746,7.559,5.645,13.621,5.645
				c2.733,0,5.367-0.403,7.833-1.201c2.607-0.841,4.622-1.861,6.161-3.122c1.194-0.979,1.545-2.656,0.848-4.034l-2.688-5.293
				c-0.146-0.284-0.331-0.548-0.548-0.775h0.679c1.58,0,2.938-1.126,3.229-2.677c0.223-1.174,0.393-2.271,0.52-3.36
				c0.003-0.022,0.004-0.042,0.006-0.062c0.103-1.074,0.156-2.12,0.156-3.108c0-2.943-0.438-5.358-1.34-7.388
				c-0.923-2.088-2.179-3.799-3.727-5.075c-1.542-1.245-3.274-2.14-5.179-2.682c-0.012-0.003-0.024-0.007-0.04-0.012
				C137.58,173.053,135.736,172.807,133.92,172.807L133.92,172.807z M131.926,186.29c0.292-0.206,0.831-0.425,1.866-0.425
				c0.969,0,1.229,0.29,1.328,0.425H131.926L131.926,186.29z M131.181,197.909h9.004c-0.353,0.2-0.893,0.462-1.704,0.766
				c-0.021,0.007-0.04,0.016-0.06,0.022c-0.932,0.373-2.07,0.56-3.38,0.56c-1.735,0-2.994-0.327-3.54-0.925
				C131.386,198.208,131.279,198.066,131.181,197.909L131.181,197.909z"/>
			<path fill="#00ADEE" d="M179.311,208.17v-19.427c0-2.381-0.197-4.412-0.605-6.067c-0.411-1.649-1.036-2.943-1.872-3.898
				c-0.849-0.941-1.852-1.631-3.055-2.058c-1.193-0.406-2.562-0.625-4.116-0.625c-2.499,0-4.545,0.5-6.128,1.491
				c-1.568,1.005-2.837,2.163-3.799,3.496h-0.242l-0.941-4.109h-6.424v31.197h8.105v-20.221c0.464-1.342,1.22-2.445,2.292-3.338
				c1.066-0.894,2.359-1.349,3.899-1.349c1.722,0,2.975,0.567,3.717,1.682c0.719,1.134,1.095,2.969,1.095,5.515v17.711H179.311z"/>
			<path fill="#FFFFFF" d="M169.662,176.095c1.554,0,2.923,0.219,4.116,0.625c1.203,0.427,2.206,1.116,3.055,2.058
				c0.836,0.955,1.461,2.249,1.872,3.898c0.408,1.655,0.605,3.687,0.605,6.067v19.427h-8.074v-17.711
				c0-2.546-0.376-4.381-1.095-5.515c-0.742-1.114-1.995-1.682-3.717-1.682c-1.54,0-2.833,0.455-3.899,1.349
				c-1.072,0.893-1.828,1.996-2.292,3.338v20.221h-8.105v-31.197h6.424l0.941,4.109h0.242c0.962-1.333,2.23-2.491,3.799-3.496
				C165.117,176.595,167.163,176.095,169.662,176.095 M169.662,172.807c-3.112,0-5.762,0.668-7.874,1.992
				c-0.172,0.11-0.341,0.223-0.508,0.337c-0.597-0.889-1.607-1.453-2.729-1.453h-6.424c-1.816,0-3.288,1.474-3.288,3.29v31.197
				c0,1.815,1.472,3.288,3.288,3.288h8.105c1.818,0,3.288-1.473,3.288-3.288v-19.597c0.264-0.566,0.623-1.033,1.11-1.438
				c0.324-0.272,0.822-0.584,1.793-0.584c0.475,0,0.855,0.079,0.966,0.201c0.139,0.247,0.558,1.207,0.558,3.707v17.711
				c0,1.815,1.472,3.288,3.288,3.288h8.074c1.818,0,3.288-1.473,3.288-3.288v-19.427c0-2.699-0.229-4.943-0.703-6.857
				c-0.532-2.148-1.403-3.923-2.591-5.278c-0.011-0.013-0.021-0.024-0.032-0.034c-1.226-1.359-2.706-2.353-4.395-2.953
				c-0.013-0.004-0.024-0.009-0.037-0.013C173.277,173.075,171.536,172.807,169.662,172.807L169.662,172.807z"/>
			<path fill="#00ADEE" d="M213.11,185.825c-0.596-2.022-1.495-3.772-2.722-5.209c-1.189-1.442-2.718-2.549-4.537-3.333
				c-1.842-0.786-4.004-1.188-6.505-1.188c-4.641,0-8.266,1.417-10.848,4.279c-2.572,2.854-3.858,6.91-3.858,12.186
				c0,2.45,0.287,4.7,0.903,6.739c0.595,2.039,1.525,3.788,2.731,5.203c1.238,1.445,2.753,2.572,4.591,3.354
				c1.84,0.788,4.001,1.193,6.48,1.193c4.663,0,8.271-1.439,10.828-4.282c2.556-2.847,3.845-6.924,3.845-12.207
				C214.02,190.111,213.712,187.864,213.11,185.825z M204.098,199.859c-1.043,1.546-2.623,2.329-4.751,2.329
				c-1.111,0-2.079-0.259-2.889-0.735c-0.824-0.482-1.475-1.155-1.958-2.033c-0.519-0.88-0.881-1.882-1.133-3.057
				c-0.245-1.165-0.379-2.435-0.379-3.804c0-3.406,0.571-5.867,1.704-7.359c1.111-1.494,2.666-2.247,4.654-2.247
				c2.296,0,3.912,0.887,4.871,2.66c0.96,1.763,1.451,4.091,1.451,6.946C205.669,195.89,205.125,198.323,204.098,199.859z"/>
			<path fill="#FFFFFF" d="M199.347,176.095c2.501,0,4.663,0.402,6.505,1.188c1.819,0.784,3.348,1.891,4.537,3.333
				c1.227,1.437,2.126,3.187,2.722,5.209c0.602,2.039,0.909,4.286,0.909,6.734c0,5.283-1.289,9.36-3.845,12.207
				c-2.558,2.843-6.165,4.282-10.828,4.282c-2.479,0-4.641-0.405-6.48-1.193c-1.838-0.781-3.353-1.908-4.591-3.354
				c-1.206-1.415-2.137-3.164-2.731-5.203c-0.616-2.039-0.903-4.289-0.903-6.739c0-5.275,1.286-9.331,3.858-12.186
				C191.081,177.512,194.706,176.095,199.347,176.095 M199.347,202.188c2.128,0,3.708-0.783,4.751-2.329
				c1.027-1.536,1.571-3.97,1.571-7.3c0-2.855-0.491-5.184-1.451-6.946c-0.959-1.773-2.575-2.66-4.871-2.66
				c-1.988,0-3.543,0.753-4.654,2.247c-1.133,1.492-1.704,3.953-1.704,7.359c0,1.369,0.134,2.639,0.379,3.804
				c0.252,1.175,0.614,2.177,1.133,3.057c0.483,0.878,1.134,1.551,1.958,2.033C197.268,201.93,198.235,202.188,199.347,202.188
				 M199.347,172.807c-5.605,0-10.079,1.806-13.292,5.368c-3.119,3.46-4.702,8.301-4.702,14.385c0,2.801,0.35,5.382,1.04,7.675
				c0.717,2.458,1.854,4.611,3.38,6.4c1.592,1.858,3.544,3.282,5.805,4.247c2.258,0.963,4.874,1.453,7.77,1.453
				c5.603,0,10.066-1.806,13.272-5.369c3.112-3.469,4.688-8.313,4.688-14.406c0-2.736-0.349-5.314-1.04-7.664
				c-0.733-2.486-1.863-4.636-3.36-6.392c-1.502-1.816-3.438-3.243-5.754-4.24C204.879,173.294,202.257,172.807,199.347,172.807
				L199.347,172.807z M199.347,198.9c-0.493,0-0.904-0.095-1.22-0.281c-0.32-0.187-0.549-0.429-0.749-0.789
				c-0.015-0.026-0.03-0.055-0.047-0.082c-0.321-0.543-0.567-1.224-0.748-2.073c-0.202-0.96-0.307-2.012-0.307-3.115
				c0-3.619,0.723-4.962,1.035-5.373c0.375-0.501,0.865-0.946,2.035-0.946c1.36,0,1.712,0.445,1.98,0.939
				c0.688,1.264,1.051,3.124,1.051,5.38c0,3.445-0.635,4.907-1.014,5.474C201.063,198.478,200.604,198.9,199.347,198.9
				L199.347,198.9z"/>
			<path fill="#00ADEE" d="M239.603,194.382c-0.729-1.175-1.58-2.126-2.63-2.851c-1.032-0.723-2.177-1.325-3.419-1.763
				c-1.262-0.469-2.409-0.881-3.44-1.282c-1.039-0.393-1.917-0.824-2.621-1.3c-0.712-0.435-1.057-1.043-1.057-1.8
				c0-1.868,1.191-2.811,3.616-2.811c1.486,0,2.981,0.202,4.425,0.647c1.464,0.404,2.67,0.793,3.607,1.176l1.827-5.86
				c-1.083-0.639-2.578-1.19-4.49-1.71c-1.924-0.466-4.05-0.734-6.436-0.734c-3.442,0-6.095,0.812-7.922,2.444
				c-1.819,1.603-2.746,3.955-2.746,7.032c0,1.887,0.364,3.419,1.068,4.6c0.69,1.175,1.569,2.163,2.625,2.935
				c1.019,0.771,2.169,1.362,3.422,1.806c1.256,0.442,2.381,0.854,3.44,1.263c1.035,0.442,1.918,0.878,2.618,1.382
				c0.693,0.486,1.058,1.16,1.058,2.012c0,1.068-0.373,1.838-1.079,2.286c-0.738,0.457-1.725,0.691-2.907,0.691
				c-1.669,0-3.304-0.252-4.872-0.792c-1.583-0.5-2.854-1.026-3.814-1.577l-2.251,6.047c1.227,0.755,2.795,1.404,4.722,1.969
				c1.934,0.567,3.998,0.857,6.216,0.857c4.024,0,7.049-0.922,9.081-2.725c2.006-1.822,3.022-4.296,3.022-7.447
				C240.666,197.034,240.306,195.547,239.603,194.382z"/>
			<path fill="#FFFFFF" d="M228.985,176.095c2.386,0,4.512,0.269,6.436,0.734c1.912,0.52,3.407,1.071,4.49,1.71l-1.827,5.86
				c-0.938-0.383-2.144-0.771-3.607-1.176c-1.443-0.445-2.938-0.647-4.425-0.647c-2.425,0-3.616,0.942-3.616,2.811
				c0,0.757,0.345,1.365,1.057,1.8c0.704,0.476,1.582,0.907,2.621,1.3c1.031,0.401,2.179,0.813,3.44,1.282
				c1.242,0.438,2.387,1.04,3.419,1.763c1.05,0.725,1.9,1.676,2.63,2.851c0.703,1.165,1.063,2.652,1.063,4.495
				c0,3.151-1.017,5.625-3.022,7.447c-2.032,1.803-5.057,2.725-9.081,2.725c-2.218,0-4.282-0.29-6.216-0.857
				c-1.927-0.564-3.495-1.214-4.722-1.969l2.251-6.047c0.961,0.551,2.231,1.077,3.814,1.577c1.568,0.54,3.203,0.792,4.872,0.792
				c1.183,0,2.169-0.234,2.907-0.691c0.706-0.448,1.079-1.218,1.079-2.286c0-0.852-0.364-1.525-1.058-2.012
				c-0.7-0.504-1.583-0.939-2.618-1.382c-1.06-0.408-2.185-0.82-3.44-1.263c-1.253-0.443-2.403-1.034-3.422-1.806
				c-1.056-0.771-1.935-1.76-2.625-2.935c-0.704-1.181-1.068-2.713-1.068-4.6c0-3.077,0.927-5.43,2.746-7.032
				C222.891,176.906,225.543,176.095,228.985,176.095 M228.985,172.807c-4.274,0-7.68,1.104-10.114,3.282
				c-2.541,2.236-3.841,5.433-3.841,9.482c0,2.47,0.515,4.585,1.53,6.287c0.917,1.551,2.095,2.863,3.486,3.887
				c1.252,0.942,2.696,1.703,4.296,2.266c1.189,0.422,2.27,0.817,3.294,1.21c0.001,0,0.004,0.003,0.006,0.004
				c-1.008-0.073-1.973-0.267-2.879-0.58c-0.025-0.01-0.052-0.017-0.078-0.028c-1.358-0.427-2.425-0.864-3.173-1.292
				c-0.504-0.29-1.069-0.439-1.637-0.439c-0.379,0-0.756,0.066-1.118,0.196c-0.91,0.327-1.63,1.041-1.964,1.949l-2.248,6.048
				c-0.547,1.469,0.021,3.12,1.354,3.942c1.477,0.909,3.282,1.672,5.521,2.328c2.229,0.655,4.632,0.986,7.142,0.986
				c4.819,0,8.609-1.194,11.263-3.553c0.011-0.008,0.02-0.016,0.03-0.024c2.721-2.473,4.099-5.798,4.099-9.881
				c0-2.415-0.517-4.498-1.534-6.19c-0.01-0.013-0.017-0.025-0.023-0.04c-1.004-1.613-2.166-2.865-3.557-3.823
				c-1.161-0.812-2.431-1.487-3.763-1.999c0.703,0.222,1.286,0.424,1.764,0.621c0.399,0.163,0.822,0.244,1.243,0.244
				c0.479,0,0.959-0.104,1.403-0.313c0.832-0.393,1.463-1.118,1.737-1.996l1.826-5.861c0.453-1.455-0.153-3.034-1.466-3.808
				c-1.312-0.778-2.999-1.429-5.307-2.055c-0.026-0.008-0.053-0.015-0.082-0.021C233.936,173.084,231.508,172.807,228.985,172.807
				L228.985,172.807z"/>
			<path fill="#FFFFFF" d="M113.335,176.973v21.712c0,1.697,0.086,3.366,0.25,5.018c0.154,1.65,0.402,3.136,0.741,4.468h-6.108
				l-1.442-4.618h-0.239c-0.964,1.589-2.296,2.887-3.998,3.928c-1.708,1.034-3.723,1.569-6.057,1.569
				c-1.582,0-2.993-0.216-4.249-0.647c-1.236-0.402-2.271-1.096-3.106-2.054c-0.828-0.96-1.466-2.244-1.906-3.858
				c-0.438-1.622-0.661-3.664-0.661-6.126v-19.391h8.111v17.713c0,2.539,0.304,4.379,0.915,5.49
				c0.591,1.133,1.771,1.678,3.521,1.678c1.529,0,2.814-0.448,3.832-1.363c1.023-0.912,1.782-2.017,2.281-3.374v-20.144H113.335
				 M113.335,173.683h-8.116c-1.815,0-3.287,1.474-3.287,3.29v19.489c-0.29,0.613-0.675,1.119-1.183,1.572
				c-0.259,0.234-0.7,0.531-1.644,0.531c-0.353,0-0.568-0.036-0.683-0.063c-0.135-0.306-0.465-1.307-0.465-3.816v-17.713
				c0-1.816-1.473-3.29-3.288-3.29h-8.111c-1.817,0-3.288,1.474-3.288,3.29v19.391c0,2.77,0.252,5.058,0.774,6.983
				c0.569,2.081,1.44,3.81,2.589,5.146c1.246,1.427,2.771,2.441,4.552,3.026c1.583,0.541,3.366,0.815,5.296,0.815
				c2.913,0,5.521-0.688,7.759-2.042c0.354-0.217,0.693-0.441,1.024-0.677c0.545,1.115,1.684,1.842,2.953,1.842h6.108
				c1.015,0,1.972-0.468,2.596-1.268c0.622-0.804,0.841-1.847,0.59-2.829c-0.293-1.161-0.515-2.496-0.655-3.97
				c-0.153-1.577-0.232-3.157-0.232-4.707v-21.712C116.624,175.156,115.151,173.683,113.335,173.683L113.335,173.683z"/>
		</g>
	</g>
</g>
</svg>
